<svg id="visual" viewBox="0 0 900 600" width="900" height="600" xmlns="http://www.w3.org/2000/svg" xmlns:xlink="http://www.w3.org/1999/xlink" version="1.1"><path d="M0 534L21.5 530.8C43 527.7 86 521.3 128.8 518C171.7 514.7 214.3 514.3 257.2 516.5C300 518.7 343 523.3 385.8 526C428.7 528.7 471.3 529.3 514.2 527.8C557 526.3 600 522.7 642.8 520.3C685.7 518 728.3 517 771.2 513.7C814 510.3 857 504.7 878.5 501.8L900 499L900 601L878.5 601C857 601 814 601 771.2 601C728.3 601 685.7 601 642.8 601C600 601 557 601 514.2 601C471.3 601 428.7 601 385.8 601C343 601 300 601 257.2 601C214.3 601 171.7 601 128.8 601C86 601 43 601 21.5 601L0 601Z" fill="#29524a"></path><path d="M0 533L21.5 535C43 537 86 541 128.8 541C171.7 541 214.3 537 257.2 535.3C300 533.7 343 534.3 385.8 537C428.7 539.7 471.3 544.3 514.2 545.7C557 547 600 545 642.8 544.7C685.7 544.3 728.3 545.7 771.2 544.5C814 543.3 857 539.7 878.5 537.8L900 536L900 601L878.5 601C857 601 814 601 771.2 601C728.3 601 685.7 601 642.8 601C600 601 557 601 514.2 601C471.3 601 428.7 601 385.8 601C343 601 300 601 257.2 601C214.3 601 171.7 601 128.8 601C86 601 43 601 21.5 601L0 601Z" fill="#164038"></path><path d="M0 541L21.5 541.2C43 541.3 86 541.7 128.8 544.2C171.7 546.7 214.3 551.3 257.2 551C300 550.7 343 545.3 385.8 541.8C428.7 538.3 471.3 536.7 514.2 537.7C557 538.7 600 542.3 642.8 545.7C685.7 549 728.3 552 771.2 551.2C814 550.3 857 545.7 878.5 543.3L900 541L900 601L878.5 601C857 601 814 601 771.2 601C728.3 601 685.7 601 642.8 601C600 601 557 601 514.2 601C471.3 601 428.7 601 385.8 601C343 601 300 601 257.2 601C214.3 601 171.7 601 128.8 601C86 601 43 601 21.5 601L0 601Z" fill="#012e27"></path><path d="M0 564L21.5 562.3C43 560.7 86 557.3 128.8 558.8C171.7 560.3 214.3 566.7 257.2 569C300 571.3 343 569.7 385.8 569.8C428.7 570 471.3 572 514.2 570.7C557 569.3 600 564.7 642.8 563.2C685.7 561.7 728.3 563.3 771.2 563.3C814 563.3 857 561.7 878.5 560.8L900 560L900 601L878.5 601C857 601 814 601 771.2 601C728.3 601 685.7 601 642.8 601C600 601 557 601 514.2 601C471.3 601 428.7 601 385.8 601C343 601 300 601 257.2 601C214.3 601 171.7 601 128.8 601C86 601 43 601 21.5 601L0 601Z" fill="#001e17"></path><path d="M0 584L21.5 582C43 580 86 576 128.8 574C171.7 572 214.3 572 257.2 573C300 574 343 576 385.8 577.8C428.7 579.7 471.3 581.3 514.2 583C557 584.7 600 586.3 642.8 585.3C685.7 584.3 728.3 580.7 771.2 579.8C814 579 857 581 878.5 582L900 583L900 601L878.5 601C857 601 814 601 771.2 601C728.3 601 685.7 601 642.8 601C600 601 557 601 514.2 601C471.3 601 428.7 601 385.8 601C343 601 300 601 257.2 601C214.3 601 171.7 601 128.8 601C86 601 43 601 21.5 601L0 601Z" fill="#000000"></path></svg>