<svg id="visual" viewBox="0 0 900 450" width="900" height="450" xmlns="http://www.w3.org/2000/svg" xmlns:xlink="http://www.w3.org/1999/xlink" version="1.1"><rect x="0" y="0" width="900" height="450" fill="#ffffff"></rect><path d="M0 408L18.8 409C37.7 410 75.3 412 112.8 387.7C150.3 363.3 187.7 312.7 225.2 310.8C262.7 309 300.3 356 337.8 344.5C375.3 333 412.7 263 450.2 210.2C487.7 157.3 525.3 121.7 562.8 130.7C600.3 139.7 637.7 193.3 675.2 200C712.7 206.7 750.3 166.3 787.8 168.8C825.3 171.3 862.7 216.7 881.3 239.3L900 262" fill="none" stroke-linecap="round" stroke-linejoin="miter" stroke="#29524A" stroke-width="15"></path></svg>